<svg width="343" height="91" viewBox="0 0 343 91" fill="none" xmlns="http://www.w3.org/2000/svg">
<path d="M86.195 33.3466H64.8881C64.6041 31.1591 64.0217 29.1847 63.141 27.4233C62.2603 25.6619 61.0955 24.1562 59.6467 22.9062C58.1978 21.6563 56.479 20.7045 54.4904 20.0511C52.5302 19.3693 50.3569 19.0284 47.9705 19.0284C43.7376 19.0284 40.087 20.0653 37.0188 22.1392C33.979 24.2131 31.6353 27.2102 29.9876 31.1307C28.3683 35.0511 27.5586 39.7955 27.5586 45.3636C27.5586 51.1591 28.3825 56.017 30.0302 59.9375C31.7063 63.8295 34.0501 66.7699 37.0614 68.7585C40.1012 70.7187 43.695 71.6989 47.8427 71.6989C50.1722 71.6989 52.2887 71.4006 54.1921 70.804C56.1239 70.2074 57.8143 69.3409 59.2631 68.2045C60.7404 67.0398 61.9478 65.6335 62.8853 63.9858C63.8512 62.3097 64.5188 60.4205 64.8881 58.3182L86.195 58.446C85.8256 62.3097 84.7035 66.1165 82.8285 69.8665C80.9819 73.6165 78.4393 77.0398 75.2006 80.1364C71.962 83.2045 68.0131 85.6477 63.3541 87.4659C58.7234 89.2841 53.4109 90.1932 47.4165 90.1932C39.5188 90.1932 32.445 88.4602 26.195 84.9943C19.9734 81.5 15.0586 76.4148 11.4506 69.7386C7.84268 63.0625 6.03871 54.9375 6.03871 45.3636C6.03871 35.7614 7.87109 27.6222 11.5359 20.946C15.2006 14.2699 20.158 9.19886 26.408 5.73295C32.658 2.26704 39.6609 0.534088 47.4165 0.534088C52.7006 0.534088 57.587 1.27273 62.0756 2.75C66.5643 4.19886 70.5131 6.32954 73.9222 9.14204C77.3313 11.9261 80.1012 15.3494 82.2319 19.4119C84.3626 23.4744 85.6836 28.1193 86.195 33.3466ZM219.637 45.3636C219.637 54.9659 217.791 63.1051 214.098 69.7812C210.404 76.4574 205.404 81.5284 199.098 84.9943C192.819 88.4602 185.774 90.1932 177.961 90.1932C170.12 90.1932 163.061 88.446 156.782 84.9517C150.504 81.4574 145.518 76.3864 141.825 69.7386C138.16 63.0625 136.328 54.9375 136.328 45.3636C136.328 35.7614 138.16 27.6222 141.825 20.946C145.518 14.2699 150.504 9.19886 156.782 5.73295C163.061 2.26704 170.12 0.534088 177.961 0.534088C185.774 0.534088 192.819 2.26704 199.098 5.73295C205.404 9.19886 210.404 14.2699 214.098 20.946C217.791 27.6222 219.637 35.7614 219.637 45.3636ZM198.075 45.3636C198.075 39.6818 197.265 34.8807 195.646 30.9602C194.055 27.0398 191.754 24.071 188.743 22.054C185.76 20.0369 182.166 19.0284 177.961 19.0284C173.785 19.0284 170.191 20.0369 167.18 22.054C164.169 24.071 161.853 27.0398 160.234 30.9602C158.643 34.8807 157.848 39.6818 157.848 45.3636C157.848 51.0455 158.643 55.8466 160.234 59.767C161.853 63.6875 164.169 66.6562 167.18 68.6733C170.191 70.6903 173.785 71.6989 177.961 71.6989C182.166 71.6989 185.76 70.6903 188.743 68.6733C191.754 66.6562 194.055 63.6875 195.646 59.767C197.265 55.8466 198.075 51.0455 198.075 45.3636ZM270.953 89V1.72727H307.004C313.538 1.72727 319.177 3.00568 323.922 5.5625C328.694 8.09091 332.373 11.6278 334.958 16.1733C337.544 20.6903 338.836 25.946 338.836 31.9403C338.836 37.9631 337.515 43.233 334.873 47.75C332.26 52.2386 328.524 55.7187 323.666 58.1903C318.808 60.6619 313.041 61.8977 306.365 61.8977H284.12V45.2784H302.444C305.626 45.2784 308.282 44.7244 310.413 43.6165C312.572 42.5085 314.206 40.9602 315.314 38.9716C316.422 36.9545 316.975 34.6108 316.975 31.9403C316.975 29.2415 316.422 26.9119 315.314 24.9517C314.206 22.9631 312.572 21.429 310.413 20.3494C308.254 19.2699 305.598 18.7301 302.444 18.7301H292.047V89H270.953Z" fill="black"/>
</svg>
