<svg width="1115" height="225" viewBox="0 0 1115 225" fill="none" xmlns="http://www.w3.org/2000/svg">
<path d="M900.079 14.6364V211H859.809L781.666 97.669H780.42V211H732.959V14.6364H773.804L851.084 127.776H852.714V14.6364H900.079ZM1057.66 73.5071C1057.02 66.4758 1054.18 61.0106 1049.13 57.1115C1044.14 53.1484 1037.02 51.1669 1027.75 51.1669C1021.61 51.1669 1016.5 51.9659 1012.41 53.5639C1008.32 55.1619 1005.25 57.3672 1003.2 60.1797C1001.16 62.9283 1000.1 66.0923 1000.04 69.6719C999.91 72.6122 1000.48 75.201 1001.76 77.4382C1003.11 79.6754 1005.02 81.657 1007.52 83.3828C1010.07 85.0447 1013.14 86.5149 1016.72 87.7933C1020.3 89.0717 1024.33 90.1903 1028.8 91.1491L1045.68 94.9844C1055.39 97.0938 1063.96 99.9062 1071.37 103.422C1078.85 106.938 1085.12 111.124 1090.17 115.982C1095.28 120.84 1099.15 126.433 1101.77 132.761C1104.39 139.089 1105.73 146.185 1105.79 154.047C1105.73 166.447 1102.6 177.09 1096.4 185.975C1090.2 194.86 1081.28 201.668 1069.65 206.398C1058.08 211.128 1044.11 213.493 1027.75 213.493C1011.32 213.493 997.001 211.032 984.792 206.11C972.584 201.188 963.091 193.71 956.316 183.674C949.54 173.638 946.057 160.95 945.865 145.609H991.312C991.696 151.938 993.39 157.211 996.394 161.43C999.398 165.648 1003.52 168.844 1008.76 171.018C1014.07 173.191 1020.2 174.278 1027.17 174.278C1033.56 174.278 1039 173.415 1043.47 171.689C1048.01 169.963 1051.49 167.566 1053.92 164.498C1056.35 161.43 1057.6 157.914 1057.66 153.951C1057.6 150.244 1056.45 147.08 1054.21 144.459C1051.97 141.774 1048.52 139.473 1043.85 137.555C1039.25 135.574 1033.37 133.752 1026.21 132.09L1005.69 127.296C988.692 123.397 975.3 117.101 965.52 108.408C955.741 99.6506 950.883 87.8253 950.947 72.9318C950.883 60.7869 954.143 50.1442 960.726 41.0035C967.31 31.8629 976.419 24.7358 988.052 19.6222C999.686 14.5085 1012.95 11.9517 1027.84 11.9517C1043.06 11.9517 1056.26 14.5405 1067.44 19.718C1078.69 24.8317 1087.42 32.0227 1093.62 41.2912C1099.82 50.5597 1102.98 61.2983 1103.11 73.5071H1057.66Z" fill="#F5EAD6"/>
<path d="M900.079 14.6364H904.079V10.6364H900.079V14.6364ZM900.079 211V215H904.079V211H900.079ZM859.809 211L856.516 213.271L857.708 215H859.809V211ZM781.666 97.669L784.959 95.3984L783.767 93.669H781.666V97.669ZM780.42 97.669V93.669H776.42V97.669H780.42ZM780.42 211V215H784.42V211H780.42ZM732.959 211H728.959V215H732.959V211ZM732.959 14.6364V10.6364H728.959V14.6364H732.959ZM773.804 14.6364L777.107 12.3802L775.916 10.6364H773.804V14.6364ZM851.084 127.776L847.781 130.032L848.972 131.776H851.084V127.776ZM852.714 127.776V131.776H856.714V127.776H852.714ZM852.714 14.6364V10.6364H848.714V14.6364H852.714ZM896.079 14.6364V211H904.079V14.6364H896.079ZM900.079 207H859.809V215H900.079V207ZM863.102 208.729L784.959 95.3984L778.373 99.9396L856.516 213.271L863.102 208.729ZM781.666 93.669H780.42V101.669H781.666V93.669ZM776.42 97.669V211H784.42V97.669H776.42ZM780.42 207H732.959V215H780.42V207ZM736.959 211V14.6364H728.959V211H736.959ZM732.959 18.6364H773.804V10.6364H732.959V18.6364ZM770.501 16.8925L847.781 130.032L854.387 125.519L777.107 12.3802L770.501 16.8925ZM851.084 131.776H852.714V123.776H851.084V131.776ZM856.714 127.776V14.6364H848.714V127.776H856.714ZM852.714 18.6364H900.079V10.6364H852.714V18.6364ZM1057.66 73.5071L1053.68 73.8692L1054.01 77.5071H1057.66V73.5071ZM1049.13 57.1115L1046.64 60.2428L1046.66 60.2603L1046.68 60.2775L1049.13 57.1115ZM1012.41 53.5639L1010.95 49.8381L1010.95 49.8381L1012.41 53.5639ZM1003.2 60.1797L1006.41 62.5677L1006.42 62.5501L1006.44 62.5324L1003.2 60.1797ZM1000.04 69.6719L1004.03 69.8456L1004.04 69.7945L1004.04 69.7433L1000.04 69.6719ZM1001.76 77.4382L998.29 79.4228L998.311 79.4597L998.333 79.4962L1001.76 77.4382ZM1007.52 83.3828L1005.24 86.6716L1005.29 86.7048L1005.34 86.7366L1007.52 83.3828ZM1016.72 87.7933L1018.07 84.0264L1018.07 84.0264L1016.72 87.7933ZM1028.8 91.1491L1029.69 87.2486L1029.66 87.2431L1029.64 87.2379L1028.8 91.1491ZM1045.68 94.9844L1044.79 98.8849L1044.81 98.8892L1044.83 98.8933L1045.68 94.9844ZM1071.37 103.422L1069.66 107.036L1069.67 107.042L1071.37 103.422ZM1090.17 115.982L1087.39 118.865L1087.4 118.874L1087.41 118.882L1090.17 115.982ZM1101.77 132.761L1098.07 134.292L1098.07 134.292L1101.77 132.761ZM1105.79 154.047L1109.79 154.067L1109.79 154.041L1109.79 154.014L1105.79 154.047ZM1096.4 185.975L1093.12 183.686L1093.12 183.686L1096.4 185.975ZM1069.65 206.398L1068.14 202.692L1068.13 202.695L1069.65 206.398ZM984.792 206.11L986.288 202.4L984.792 206.11ZM945.865 145.609V141.609H941.815L941.865 145.659L945.865 145.609ZM991.312 145.609L995.305 145.367L995.077 141.609H991.312V145.609ZM996.394 161.43L993.136 163.75L993.136 163.75L996.394 161.43ZM1008.76 171.018L1007.23 174.713L1007.24 174.716L1007.25 174.719L1008.76 171.018ZM1043.47 171.689L1042.05 167.95L1042.04 167.954L1042.03 167.957L1043.47 171.689ZM1053.92 164.498L1050.79 162.015L1050.79 162.015L1053.92 164.498ZM1057.66 153.951L1061.66 154.016L1061.66 153.949L1061.66 153.882L1057.66 153.951ZM1054.21 144.459L1051.14 147.02L1051.15 147.038L1051.17 147.056L1054.21 144.459ZM1043.85 137.555L1042.27 141.229L1042.3 141.242L1042.33 141.255L1043.85 137.555ZM1026.21 132.09L1025.3 135.985L1025.31 135.987L1026.21 132.09ZM1005.69 127.296L1006.6 123.401L1006.6 123.399L1006.59 123.397L1005.69 127.296ZM965.52 108.408L962.852 111.388L962.858 111.392L962.863 111.397L965.52 108.408ZM950.947 72.9318L954.947 72.949L954.947 72.9299L954.947 72.9108L950.947 72.9318ZM960.726 41.0035L957.481 38.6657L957.481 38.6657L960.726 41.0035ZM988.052 19.6222L989.662 23.284L989.662 23.284L988.052 19.6222ZM1067.44 19.718L1065.76 23.348L1065.77 23.3538L1065.79 23.3595L1067.44 19.718ZM1093.62 41.2912L1096.94 39.0671L1096.94 39.0671L1093.62 41.2912ZM1103.11 73.5071V77.5071H1107.15L1107.11 73.4652L1103.11 73.5071ZM1061.65 73.1449C1060.92 65.1369 1057.6 58.6011 1051.57 53.9455L1046.68 60.2775C1050.75 63.4202 1053.13 67.8148 1053.68 73.8692L1061.65 73.1449ZM1051.62 53.9802C1045.66 49.2487 1037.52 47.1669 1027.75 47.1669V55.1669C1036.51 55.1669 1042.62 57.0482 1046.64 60.2428L1051.62 53.9802ZM1027.75 47.1669C1021.3 47.1669 1015.65 48.0024 1010.95 49.8381L1013.86 57.2897C1017.34 55.9294 1021.93 55.1669 1027.75 55.1669V47.1669ZM1010.95 49.8381C1006.33 51.6416 1002.57 54.2522 999.967 57.827L1006.44 62.5324C1007.93 60.4822 1010.3 58.6823 1013.86 57.2897L1010.95 49.8381ZM999.993 57.7916C997.425 61.2422 996.116 65.2251 996.038 69.6005L1004.04 69.7433C1004.09 66.9596 1004.89 64.6143 1006.41 62.5677L999.993 57.7916ZM996.041 69.4981C995.885 73.083 996.586 76.4405 998.29 79.4228L1005.24 75.4537C1004.38 73.9614 1003.93 72.1414 1004.03 69.8456L996.041 69.4981ZM998.333 79.4962C1000.01 82.2938 1002.35 84.6742 1005.24 86.6716L1009.79 80.094C1007.69 78.6397 1006.2 77.0571 1005.19 75.3802L998.333 79.4962ZM1005.34 86.7366C1008.21 88.6038 1011.57 90.2016 1015.38 91.5603L1018.07 84.0264C1014.71 82.8282 1011.94 81.4856 1009.7 80.029L1005.34 86.7366ZM1015.38 91.5603C1019.15 92.9084 1023.35 94.0718 1027.96 95.0604L1029.64 87.2379C1025.3 86.3088 1021.45 85.2351 1018.07 84.0264L1015.38 91.5603ZM1027.92 95.0497L1044.79 98.8849L1046.56 91.0838L1029.69 87.2486L1027.92 95.0497ZM1044.83 98.8933C1054.31 100.951 1062.57 103.676 1069.66 107.036L1073.09 99.8076C1065.34 96.1369 1056.48 93.2365 1046.53 91.0754L1044.83 98.8933ZM1069.67 107.042C1076.82 110.404 1082.71 114.358 1087.39 118.865L1092.94 113.1C1087.52 107.89 1080.88 103.471 1073.07 99.8019L1069.67 107.042ZM1087.41 118.882C1092.13 123.366 1095.67 128.497 1098.07 134.292L1105.46 131.231C1102.62 124.37 1098.43 118.314 1092.92 113.082L1087.41 118.882ZM1098.07 134.292C1100.47 140.08 1101.73 146.656 1101.79 154.079L1109.79 154.014C1109.73 145.713 1108.31 138.099 1105.46 131.231L1098.07 134.292ZM1101.79 154.026C1101.73 165.736 1098.79 175.56 1093.12 183.686L1099.68 188.264C1106.41 178.621 1109.73 167.158 1109.79 154.067L1101.79 154.026ZM1093.12 183.686C1087.43 191.842 1079.17 198.206 1068.14 202.692L1071.15 210.103C1083.39 205.129 1092.97 197.878 1099.68 188.264L1093.12 183.686ZM1068.13 202.695C1057.17 207.178 1043.74 209.493 1027.75 209.493V217.493C1044.48 217.493 1058.99 215.077 1071.16 210.1L1068.13 202.695ZM1027.75 209.493C1011.71 209.493 997.92 207.089 986.288 202.4L983.297 209.82C996.083 214.975 1010.93 217.493 1027.75 217.493V209.493ZM986.288 202.4C974.751 197.749 965.921 190.753 959.631 181.436L953.001 185.912C960.262 196.667 970.416 204.627 983.297 209.82L986.288 202.4ZM959.631 181.436C953.396 172.2 950.049 160.327 949.865 145.559L941.865 145.659C942.064 161.573 945.685 175.077 953.001 185.912L959.631 181.436ZM945.865 149.609H991.312V141.609H945.865V149.609ZM987.32 145.851C987.738 152.759 989.609 158.797 993.136 163.75L999.652 159.109C997.171 155.625 995.653 151.116 995.305 145.367L987.32 145.851ZM993.136 163.75C996.616 168.638 1001.36 172.281 1007.23 174.713L1010.29 167.323C1005.68 165.408 1002.18 162.659 999.652 159.109L993.136 163.75ZM1007.25 174.719C1013.12 177.127 1019.79 178.278 1027.17 178.278V170.278C1020.62 170.278 1015.01 169.255 1010.28 167.316L1007.25 174.719ZM1027.17 178.278C1033.9 178.278 1039.85 177.372 1044.91 175.421L1042.03 167.957C1038.14 169.457 1033.23 170.278 1027.17 170.278V178.278ZM1044.89 175.428C1049.94 173.507 1054.09 170.736 1057.06 166.981L1050.79 162.015C1048.9 164.396 1046.07 166.419 1042.05 167.95L1044.89 175.428ZM1057.06 166.981C1060.04 163.214 1061.58 158.845 1061.66 154.016L1053.66 153.886C1053.61 156.983 1052.66 159.646 1050.79 162.015L1057.06 166.981ZM1061.66 153.882C1061.58 149.322 1060.14 145.244 1057.25 141.862L1051.17 147.056C1052.75 148.915 1053.61 151.165 1053.66 154.02L1061.66 153.882ZM1057.28 141.898C1054.48 138.54 1050.39 135.918 1045.38 133.856L1042.33 141.255C1046.65 143.028 1049.46 145.008 1051.14 147.02L1057.28 141.898ZM1045.44 133.881C1040.54 131.773 1034.41 129.887 1027.12 128.194L1025.31 135.987C1032.33 137.617 1037.96 139.374 1042.27 141.229L1045.44 133.881ZM1027.12 128.195L1006.6 123.401L1004.78 131.191L1025.3 135.985L1027.12 128.195ZM1006.59 123.397C990.031 119.6 977.316 113.541 968.178 105.418L962.863 111.397C973.285 120.661 987.353 127.194 1004.8 131.195L1006.59 123.397ZM968.189 105.428C959.38 97.5404 954.887 86.8698 954.947 72.949L946.947 72.9147C946.879 88.7808 952.101 101.761 962.852 111.388L968.189 105.428ZM954.947 72.9108C954.887 61.5422 957.922 51.7406 963.972 43.3414L957.481 38.6657C950.363 48.5477 946.879 60.0316 946.947 72.9529L954.947 72.9108ZM963.972 43.3414C970.087 34.8516 978.597 28.1479 989.662 23.284L986.443 15.9603C974.241 21.3237 964.533 28.8742 957.481 38.6657L963.972 43.3414ZM989.662 23.284C1000.71 18.4284 1013.41 15.9517 1027.84 15.9517V7.9517C1012.49 7.9517 998.663 10.5886 986.443 15.9603L989.662 23.284ZM1027.84 15.9517C1042.61 15.9517 1055.21 18.4644 1065.76 23.348L1069.12 16.088C1057.3 10.6166 1043.5 7.9517 1027.84 7.9517V15.9517ZM1065.79 23.3595C1076.43 28.1996 1084.55 34.931 1090.29 43.5153L1096.94 39.0671C1090.28 29.1145 1080.95 21.4638 1069.1 16.0766L1065.79 23.3595ZM1090.29 43.5153C1096.02 52.0764 1098.99 62.0409 1099.11 73.549L1107.11 73.4652C1106.97 60.5556 1103.62 49.0429 1096.94 39.0671L1090.29 43.5153ZM1103.11 69.5071H1057.66V77.5071H1103.11V69.5071Z" fill="black"/>
<path d="M560.5 14.5H623.5L689.5 211H639L614.5 133.5L593 64H591L569.261 133.5H614.5L626 170H558.5L545.5 211H494L560.5 14.5Z" fill="#F5EAD6"/>
<path d="M614.5 133.5H569.261L591 64H593L614.5 133.5ZM614.5 133.5L639 211H689.5L623.5 14.5H560.5L494 211H545.5L558.5 170H626L614.5 133.5Z" stroke="black" stroke-width="8"/>
<path d="M611 137.5H620.5L629.5 166H619.5L611 137.5Z" fill="#F5EAD6"/>
<path d="M121.379 73.5071C120.74 66.4758 117.895 61.0106 112.846 57.1115C107.86 53.1484 100.733 51.1669 91.4644 51.1669C85.328 51.1669 80.2144 51.9659 76.1235 53.5639C72.0326 55.1619 68.9644 57.3672 66.9189 60.1797C64.8735 62.9283 63.8188 66.0923 63.7549 69.6719C63.627 72.6122 64.2023 75.201 65.4807 77.4382C66.823 79.6754 68.7407 81.657 71.2336 83.3828C73.7904 85.0447 76.8586 86.5149 80.4381 87.7933C84.0176 89.0717 88.0446 90.1903 92.5191 91.1491L109.394 94.9844C119.11 97.0938 127.675 99.9062 135.09 103.422C142.569 106.938 148.833 111.124 153.883 115.982C158.996 120.84 162.864 126.433 165.484 132.761C168.105 139.089 169.447 146.185 169.511 154.047C169.447 166.447 166.315 177.09 160.115 185.975C153.915 194.86 144.998 201.668 133.364 206.398C121.795 211.128 107.828 213.493 91.4644 213.493C75.0368 213.493 60.7186 211.032 48.5098 206.11C36.301 201.188 26.8088 193.71 20.0333 183.674C13.2577 173.638 9.77404 160.95 9.58228 145.609H55.0297C55.4132 151.938 57.1071 157.211 60.1114 161.43C63.1157 165.648 67.2385 168.844 72.48 171.018C77.7854 173.191 83.9218 174.278 90.8891 174.278C97.2811 174.278 102.714 173.415 107.189 171.689C111.727 169.963 115.211 167.566 117.64 164.498C120.069 161.43 121.315 157.914 121.379 153.951C121.315 150.244 120.165 147.08 117.927 144.459C115.69 141.774 112.239 139.473 107.572 137.555C102.97 135.574 97.0894 133.752 89.9303 132.09L69.4118 127.296C52.409 123.397 39.0176 117.101 29.2378 108.408C19.458 99.6506 14.6 87.8253 14.664 72.9318C14.6 60.7869 17.86 50.1442 24.4438 41.0035C31.0276 31.8629 40.1363 24.7358 51.7698 19.6222C63.4033 14.5085 76.6668 11.9517 91.5603 11.9517C106.773 11.9517 119.973 14.5405 131.159 19.718C142.409 24.8317 151.134 32.0227 157.334 41.2912C163.535 50.5597 166.699 61.2983 166.827 73.5071H121.379ZM262.159 211L205.014 14.6364H257.461L287.088 143.308H288.718L322.564 14.6364H365.326L399.172 143.596H400.802L430.525 14.6364H482.876L425.827 211H380.092L344.712 91.9162H343.178L307.798 211H262.159Z" fill="#F5EAD6"/>
<path d="M121.379 73.5071L117.396 73.8692L117.726 77.5071H121.379V73.5071ZM112.846 57.1115L110.357 60.2428L110.379 60.2603L110.401 60.2775L112.846 57.1115ZM76.1235 53.5639L74.6681 49.8381L74.6681 49.8381L76.1235 53.5639ZM66.9189 60.1797L70.1279 62.5677L70.141 62.5501L70.1539 62.5324L66.9189 60.1797ZM63.7549 69.6719L67.7511 69.8456L67.7533 69.7945L67.7542 69.7433L63.7549 69.6719ZM65.4807 77.4382L62.0077 79.4228L62.0289 79.4597L62.0507 79.4962L65.4807 77.4382ZM71.2336 83.3828L68.9567 86.6716L69.0047 86.7048L69.0536 86.7366L71.2336 83.3828ZM80.4381 87.7933L81.7835 84.0264L81.7835 84.0264L80.4381 87.7933ZM92.5191 91.1491L93.4056 87.2486L93.3814 87.2431L93.3572 87.2379L92.5191 91.1491ZM109.394 94.9844L108.508 98.8849L108.526 98.8892L108.545 98.8933L109.394 94.9844ZM135.09 103.422L133.376 107.036L133.388 107.042L135.09 103.422ZM153.883 115.982L151.11 118.865L151.119 118.874L151.128 118.882L153.883 115.982ZM165.484 132.761L161.789 134.292L161.789 134.292L165.484 132.761ZM169.511 154.047L173.511 154.067L173.511 154.041L173.511 154.014L169.511 154.047ZM160.115 185.975L156.835 183.686L156.835 183.686L160.115 185.975ZM133.364 206.398L131.858 202.692L131.851 202.695L133.364 206.398ZM48.5098 206.11L50.0054 202.4L48.5098 206.11ZM9.58228 145.609V141.609H5.53196L5.58259 145.659L9.58228 145.609ZM55.0297 145.609L59.0224 145.367L58.7946 141.609H55.0297V145.609ZM60.1114 161.43L56.8531 163.75L56.8531 163.75L60.1114 161.43ZM72.48 171.018L70.9479 174.713L70.9558 174.716L70.9637 174.719L72.48 171.018ZM107.189 171.689L105.767 167.95L105.758 167.954L105.749 167.957L107.189 171.689ZM117.64 164.498L114.504 162.015L114.504 162.015L117.64 164.498ZM121.379 153.951L125.379 154.016L125.38 153.949L125.379 153.882L121.379 153.951ZM117.927 144.459L114.855 147.02L114.87 147.038L114.885 147.056L117.927 144.459ZM107.572 137.555L105.991 141.229L106.021 141.242L106.052 141.255L107.572 137.555ZM89.9303 132.09L89.0202 135.985L89.0258 135.987L89.9303 132.09ZM69.4118 127.296L70.3219 123.401L70.3139 123.399L70.3059 123.397L69.4118 127.296ZM29.2378 108.408L26.5695 111.388L26.5749 111.392L26.5804 111.397L29.2378 108.408ZM14.664 72.9318L18.6639 72.949L18.664 72.9299L18.6639 72.9108L14.664 72.9318ZM24.4438 41.0035L21.1981 38.6657L21.1981 38.6657L24.4438 41.0035ZM51.7698 19.6222L53.3794 23.284L53.3794 23.284L51.7698 19.6222ZM131.159 19.718L129.479 23.348L129.491 23.3538L129.504 23.3595L131.159 19.718ZM157.334 41.2912L160.659 39.0671L160.659 39.0671L157.334 41.2912ZM166.827 73.5071V77.5071H170.869L170.826 73.4652L166.827 73.5071ZM125.363 73.1449C124.635 65.1369 121.32 58.6011 115.29 53.9455L110.401 60.2775C114.471 63.4202 116.845 67.8148 117.396 73.8692L125.363 73.1449ZM115.335 53.9802C109.382 49.2487 101.238 47.1669 91.4644 47.1669V55.1669C100.227 55.1669 106.338 57.0482 110.357 60.2428L115.335 53.9802ZM91.4644 47.1669C85.0134 47.1669 79.3675 48.0024 74.6681 49.8381L77.5789 57.2897C81.0613 55.9294 85.6427 55.1669 91.4644 55.1669V47.1669ZM74.6681 49.8381C70.0511 51.6416 66.2838 54.2522 63.684 57.827L70.1539 62.5324C71.6449 60.4822 74.014 58.6823 77.5789 57.2897L74.6681 49.8381ZM63.71 57.7916C61.1421 61.2422 59.8336 65.2251 59.7555 69.6005L67.7542 69.7433C67.8039 66.9596 68.6048 64.6143 70.1279 62.5677L63.71 57.7916ZM59.7586 69.4981C59.6028 73.083 60.3036 76.4405 62.0077 79.4228L68.9537 75.4537C68.101 73.9614 67.6513 72.1414 67.7511 69.8456L59.7586 69.4981ZM62.0507 79.4962C63.7293 82.2938 66.0716 84.6742 68.9567 86.6716L73.5104 80.094C71.4097 78.6397 69.9168 77.0571 68.9107 75.3802L62.0507 79.4962ZM69.0536 86.7366C71.9263 88.6038 75.2885 90.2016 79.0928 91.5603L81.7835 84.0264C78.4287 82.8282 75.6545 81.4856 73.4135 80.029L69.0536 86.7366ZM79.0928 91.5603C82.8674 92.9084 87.0679 94.0718 91.681 95.0604L93.3572 87.2379C89.0214 86.3088 85.1679 85.2351 81.7835 84.0264L79.0928 91.5603ZM91.6326 95.0497L108.508 98.8849L110.281 91.0838L93.4056 87.2486L91.6326 95.0497ZM108.545 98.8933C118.023 100.951 126.289 103.676 133.376 107.036L136.804 99.8076C129.062 96.1369 120.197 93.2365 110.243 91.0754L108.545 98.8933ZM133.388 107.042C140.541 110.404 146.425 114.358 151.11 118.865L156.656 113.1C151.241 107.89 144.596 103.471 136.792 99.8019L133.388 107.042ZM151.128 118.882C155.848 123.366 159.389 128.497 161.789 134.292L169.18 131.231C166.338 124.37 162.145 118.314 156.638 113.082L151.128 118.882ZM161.789 134.292C164.186 140.08 165.451 146.656 165.511 154.079L173.511 154.014C173.444 145.713 172.024 138.099 169.18 131.231L161.789 134.292ZM165.511 154.026C165.451 165.736 162.506 175.56 156.835 183.686L163.395 188.264C170.125 178.621 173.444 167.158 173.511 154.067L165.511 154.026ZM156.835 183.686C151.143 191.842 142.892 198.206 131.858 202.692L134.871 210.103C147.103 205.129 156.686 197.878 163.395 188.264L156.835 183.686ZM131.851 202.695C120.885 207.178 107.461 209.493 91.4644 209.493V217.493C108.195 217.493 122.704 215.077 134.878 210.1L131.851 202.695ZM91.4644 209.493C75.4267 209.493 61.6371 207.089 50.0054 202.4L47.0142 209.82C59.8002 214.975 74.6469 217.493 91.4644 217.493V209.493ZM50.0054 202.4C38.4689 197.749 29.6387 190.753 23.3484 181.436L16.7181 185.912C23.979 196.667 34.1332 204.627 47.0142 209.82L50.0054 202.4ZM23.3484 181.436C17.1129 172.2 13.7666 160.327 13.582 145.559L5.58259 145.659C5.78151 161.573 9.40249 175.077 16.7181 185.912L23.3484 181.436ZM9.58228 149.609H55.0297V141.609H9.58228V149.609ZM51.037 145.851C51.4557 152.759 53.326 158.797 56.8531 163.75L63.3697 159.109C60.8882 155.625 59.3708 151.116 59.0224 145.367L51.037 145.851ZM56.8531 163.75C60.3337 168.638 65.0822 172.281 70.9479 174.713L74.0121 167.323C69.3949 165.408 65.8976 162.659 63.3697 159.109L56.8531 163.75ZM70.9637 174.719C76.8419 177.127 83.5108 178.278 90.8891 178.278V170.278C84.3328 170.278 78.7289 169.255 73.9963 167.316L70.9637 174.719ZM90.8891 178.278C97.619 178.278 103.57 177.372 108.628 175.421L105.749 167.957C101.859 169.457 96.9432 170.278 90.8891 170.278V178.278ZM108.611 175.428C113.662 173.507 117.803 170.736 120.776 166.981L114.504 162.015C112.619 164.396 109.792 166.419 105.767 167.95L108.611 175.428ZM120.776 166.981C123.758 163.214 125.301 158.845 125.379 154.016L117.38 153.886C117.33 156.983 116.379 159.646 114.504 162.015L120.776 166.981ZM125.379 153.882C125.3 149.322 123.857 145.244 120.97 141.862L114.885 147.056C116.472 148.915 117.331 151.165 117.38 154.02L125.379 153.882ZM121 141.898C118.202 138.54 114.112 135.918 109.093 133.856L106.052 141.255C110.365 143.028 113.178 145.008 114.855 147.02L121 141.898ZM109.154 133.881C104.258 131.773 98.1292 129.887 90.8348 128.194L89.0258 135.987C96.0496 137.617 101.682 139.374 105.991 141.229L109.154 133.881ZM90.8404 128.195L70.3219 123.401L68.5018 131.191L89.0202 135.985L90.8404 128.195ZM70.3059 123.397C53.7479 119.6 41.0334 113.541 31.8953 105.418L26.5804 111.397C37.0019 120.661 51.0701 127.194 68.5177 131.195L70.3059 123.397ZM31.9061 105.428C23.0976 97.5404 18.6042 86.8698 18.6639 72.949L10.664 72.9147C10.5959 88.7808 15.8183 101.761 26.5695 111.388L31.9061 105.428ZM18.6639 72.9108C18.6041 61.5422 21.6397 51.7406 27.6895 43.3414L21.1981 38.6657C14.0803 48.5477 10.596 60.0316 10.664 72.9529L18.6639 72.9108ZM27.6895 43.3414C33.8045 34.8516 42.3141 28.1479 53.3794 23.284L50.1602 15.9603C37.9584 21.3237 28.2507 28.8742 21.1981 38.6657L27.6895 43.3414ZM53.3794 23.284C64.4259 18.4284 77.1267 15.9517 91.5603 15.9517V7.9517C76.2069 7.9517 62.3807 10.5886 50.1602 15.9603L53.3794 23.284ZM91.5603 15.9517C106.326 15.9517 118.928 18.4644 129.479 23.348L132.839 16.088C121.018 10.6166 107.221 7.9517 91.5603 7.9517V15.9517ZM129.504 23.3595C140.152 28.1996 148.267 34.931 154.01 43.5153L160.659 39.0671C154.001 29.1145 144.666 21.4638 132.814 16.0766L129.504 23.3595ZM154.01 43.5153C159.737 52.0764 162.706 62.0409 162.827 73.549L170.826 73.4652C170.691 60.5556 167.333 49.0429 160.659 39.0671L154.01 43.5153ZM166.827 69.5071H121.379V77.5071H166.827V69.5071ZM262.159 211L258.318 212.118L259.157 215H262.159V211ZM205.014 14.6364V10.6364H199.684L201.173 15.7541L205.014 14.6364ZM257.461 14.6364L261.359 13.7388L260.644 10.6364H257.461V14.6364ZM287.088 143.308L283.19 144.206L283.904 147.308H287.088V143.308ZM288.718 143.308V147.308H291.802L292.586 144.326L288.718 143.308ZM322.564 14.6364V10.6364H319.48L318.695 13.6188L322.564 14.6364ZM365.326 14.6364L369.195 13.6209L368.412 10.6364H365.326V14.6364ZM399.172 143.596L395.303 144.611L396.087 147.596H399.172V143.596ZM400.802 143.596V147.596H403.985L404.7 144.494L400.802 143.596ZM430.525 14.6364V10.6364H427.342L426.628 13.738L430.525 14.6364ZM482.876 14.6364L486.717 15.7523L488.204 10.6364H482.876V14.6364ZM425.827 211V215H428.83L429.668 212.116L425.827 211ZM380.092 211L376.258 212.139L377.108 215H380.092V211ZM344.712 91.9162L348.546 90.777L347.697 87.9162H344.712V91.9162ZM343.178 91.9162V87.9162H340.194L339.344 90.777L343.178 91.9162ZM307.798 211V215H310.782L311.632 212.139L307.798 211ZM266 209.882L208.855 13.5187L201.173 15.7541L258.318 212.118L266 209.882ZM205.014 18.6364H257.461V10.6364H205.014V18.6364ZM253.563 15.5339L283.19 144.206L290.986 142.411L261.359 13.7388L253.563 15.5339ZM287.088 147.308H288.718V139.308H287.088V147.308ZM292.586 144.326L326.432 15.6539L318.695 13.6188L284.849 142.291L292.586 144.326ZM322.564 18.6364H365.326V10.6364H322.564V18.6364ZM361.457 15.6518L395.303 144.611L403.041 142.58L369.195 13.6209L361.457 15.6518ZM399.172 147.596H400.802V139.596H399.172V147.596ZM404.7 144.494L434.423 15.5347L426.628 13.738L396.905 142.697L404.7 144.494ZM430.525 18.6364H482.876V10.6364H430.525V18.6364ZM479.035 13.5204L421.986 209.884L429.668 212.116L486.717 15.7523L479.035 13.5204ZM425.827 207H380.092V215H425.827V207ZM383.926 209.861L348.546 90.777L340.878 93.0554L376.258 212.139L383.926 209.861ZM344.712 87.9162H343.178V95.9162H344.712V87.9162ZM339.344 90.777L303.964 209.861L311.632 212.139L347.012 93.0554L339.344 90.777ZM307.798 207H262.159V215H307.798V207Z" fill="black"/>
</svg>
